/* XPM */
static char *_674584637719[] = {
/* columns rows colors chars-per-pixel */
"40 40 218 2 ",
"   c #3F1300",
".  c #441C00",
"X  c #4B1D00",
"o  c #411500",
"O  c #4B2302",
"+  c #532503",
"@  c #532906",
"#  c #5A2B05",
"$  c #54240C",
"%  c #53290A",
"&  c #5B2D0B",
"*  c #582706",
"=  c #5E340B",
"-  c #5C3306",
";  c #592812",
":  c #612F0E",
">  c #61350C",
",  c #673C0F",
"<  c #6C3C12",
"1  c #61321A",
"2  c #693D15",
"3  c #7A3D1F",
"4  c #773D14",
"5  c #6B4612",
"6  c #74451A",
"7  c #7C451C",
"8  c #7C4C1C",
"9  c #724814",
"0  c #7B521C",
"q  c #7F4124",
"w  c #7B4C27",
"e  c #7B5223",
"r  c #7A522D",
"t  c #7E5737",
"y  c #7E5837",
"u  c #83451E",
"i  c #83491F",
"p  c #80501E",
"a  c #824426",
"s  c #854B23",
"d  c #8A4D24",
"f  c #84472A",
"g  c #854B2B",
"h  c #8A4D2C",
"j  c #884626",
"k  c #835325",
"l  c #8C5226",
"z  c #895A26",
"x  c #84552A",
"c  c #8D522A",
"v  c #855B27",
"b  c #915329",
"n  c #915C2E",
"m  c #8B4E31",
"M  c #815335",
"N  c #8D5434",
"B  c #8C5E33",
"V  c #88563D",
"C  c #825B3B",
"Z  c #8C5B3C",
"A  c #835635",
"S  c #915334",
"D  c #935A33",
"F  c #9A5E34",
"G  c #945538",
"H  c #955A3B",
"J  c #9A5C3D",
"K  c #9A5636",
"L  c #A05F3E",
"P  c #8D662B",
"I  c #95662E",
"U  c #8C6133",
"Y  c #906334",
"T  c #9C6336",
"R  c #93643B",
"E  c #9D623A",
"W  c #9B6C3A",
"Q  c #9B6A35",
"!  c #9A7138",
"~  c #A2663C",
"^  c #A46B3F",
"/  c #A16835",
"(  c #A57634",
")  c #AC7735",
"_  c #AC7936",
"`  c #A5743A",
"'  c #AB753B",
"]  c #AC7A3B",
"[  c #A5783C",
"{  c #B07732",
"}  c #B2753E",
"|  c #B27C3C",
" . c #925F44",
".. c #9C5E41",
"X. c #A05E42",
"o. c #956342",
"O. c #9E6244",
"+. c #966F43",
"@. c #9C6E44",
"#. c #9B6549",
"$. c #9D6C4C",
"%. c #987647",
"&. c #977048",
"*. c #9C754A",
"=. c #9E7A4B",
"-. c #957240",
";. c #A26445",
":. c #A56B43",
">. c #AA6D44",
",. c #A36648",
"<. c #A56A4B",
"1. c #AA6C4B",
"2. c #A9674C",
"3. c #A47443",
"4. c #AC7146",
"5. c #A67C44",
"6. c #AC7C44",
"7. c #A3744C",
"8. c #AD734A",
"9. c #A47A4C",
"0. c #AD7B4B",
"q. c #B17541",
"w. c #B2754C",
"e. c #B2794C",
"r. c #B17E47",
"t. c #AB6E51",
"y. c #A47352",
"u. c #AC7353",
"i. c #AB7C54",
"p. c #B07354",
"a. c #B47A53",
"s. c #B97C53",
"d. c #B47D5B",
"f. c #B5823E",
"g. c #A8824A",
"h. c #B28343",
"j. c #B98743",
"k. c #B38B44",
"l. c #BB8C45",
"z. c #B3824C",
"x. c #BB874E",
"c. c #B58E4E",
"v. c #B98A4C",
"b. c #BD934B",
"n. c #B8914A",
"m. c #AF8252",
"M. c #AF8A56",
"N. c #AD8A5A",
"B. c #AB8758",
"V. c #B48353",
"C. c #BA8156",
"Z. c #B48952",
"A. c #B98D54",
"S. c #B4855A",
"D. c #BB8159",
"F. c #B38C5C",
"G. c #BC8D5C",
"H. c #AF905F",
"J. c #BB9456",
"K. c #B6915D",
"L. c #BB955B",
"P. c #BE9857",
"I. c #BC8E69",
"U. c #BC8A64",
"Y. c #B39363",
"T. c #BD9463",
"R. c #BF9669",
"E. c #BE9964",
"W. c #C28C4B",
"Q. c #CA8D49",
"!. c #C3904C",
"~. c #C79E4E",
"^. c #C99E4E",
"/. c #C1845B",
"(. c #C19354",
"). c #C89451",
"_. c #C39C52",
"`. c #CB9E54",
"'. c #C2955F",
"]. c #C49C5C",
"[. c #CC9C59",
"{. c #D19E5C",
"}. c #CAA14E",
"|. c #C5A653",
" X c #CAA455",
".X c #C7AA55",
"XX c #C8A853",
"oX c #CCA35C",
"OX c #CCA85D",
"+X c #C6A45E",
"@X c #D1A25C",
"#X c #D4AA5D",
"$X c #CEB35F",
"%X c #C59B63",
"&X c #C39566",
"*X c #D29E60",
"=X c #C49A71",
"-X c #C89978",
";X c #CDA462",
":X c #CFA963",
">X c #CEA26C",
",X c #C7A163",
"<X c #D2A363",
"1X c #D2A966",
"2X c #D2A66A",
"3X c #D3AB6D",
"4X c #CEB862",
"5X c #D5B463",
"6X c #D8B363",
"7X c #D1B962",
"8X c #D9B76A",
"9X c #CBA273",
"0X c #D6AE72",
"qX c #D9AC79",
"wX c #D8AF74",
"eX c #D9B373",
"rX c #E1BB71",
"tX c #DDB38A",
/* pixels */
"$.-XI.V.G.%X].].[.;X;X;X<X@X*X<X2X2X<X*X{.*X{.*X{.{.{. X{. X X X#X_.2X&X=XtXR.e ",
"y.r R > *.[ [ ( ( ( ( ( j.j.j.j.W.!.(.).[.[.[.[.`.[.`. X`.`. X[.~.J.A.9 e 9Xe E.",
"-XU.x i.W z.z./ _ { { { Q.Q.Q.Q.f.k.b._. XoX X X X X XXXXXXX X X+X0X0XP.g.v 9XtX",
"w +.S.x V.Y n h.6.| } } W.W./.W.k.n.].;X;X+X;X+X+XOXoXoX XoX+X;XM.0 ,XP.! 5.e =X",
"e v V.0.Y B < 9.@.@.3.@.8.'.S.9.B.N.H.Y.B.S.T.K.M.M.M.M.K.E.K.K.g.5 g.P c.J.5 F.",
"A.0.` V.B o > > # & # # @ + + = = = > > = % o = > > = = , > . - , > . g.P.3XP.eX",
"c.I Q # R 2 u.8.i.7.i.4.8.4 :.a.9.e.a.a.D.s R C.0.0.0.6.r.z i 0.9.S.- 9 5 0X+X8X",
"k.( ` :.H * y.:.<.3.4.>.7 p.>.:.:.:.:.>.i ~ 4.w.>.6.4.4.l l V.Q 7.:.# *.g.,X X$X",
"v.] 6.4.V + u.8.8.8.:.s E 4.:.8.w.^ ^ u L >.q.w.w.>.w.l l >.w.q.;.>.X G.;X`.XX7X",
"l.] 6.4.V $ p.>.w.:.i :.4.4.4.0.^ w.u L } 1.w.>.>.s.F d >.w.>.>.t.a.# V.@X^.XX7X",
"l.] ' 1.V $ p.4.^ e 3.8.4.4.8.w.>.u K s.1.>.>.w.w.K d w.s.>.>.8.s.D X &X@X}.|.7X",
"l.] q.4.V $ a.>.i :.0.4.8.8.0.8.i ~ s.w.w.q.>.>.b d w.s.>.>.>./.H s + T.@X}..X7X",
"v.6.q.w.M ; ;.d >.4.4.4.:.W 8.i L w.>.>.w.} w.b b w.4.>.~ 4.s.L j <.: Z.#X}..X7X",
"l.' } >. .$ j 8.4.4.7.4.>.a.w F q.>.>.>.~ s.j L >.~ >.q.w./.L u ;.,.X S.oX}.|.4X",
"v.' q.w.V $ p.~ 4.4.7.4.8.l c 0.w.>.>.4.} b d s.>.>.w.~ s.~ d L s.2.. F.[.~.|.$X",
"v.' } >.M 1 1.s.4.4.4.4.4 E D.4.>.' >.>.b K w.>.>.q./ s.L u / q.8.u.@ T.@X^.}.7X",
"x.) } w.M ; p.>.w.4.0.s F 4.4.^ w.e.e.l T >.4.4.E ^ s.T l ~ 4.>.<.O.+ F.@X}. X6X",
"x.) } e.M $ p.>.4.a.7 T w.4.>.>.w.s.d n 4.8.4.>.^ C.T s >.:.>.>.;.u.+ F.oX^. X6X",
"x.' } w.M $ p.>.w.7 D 8.w.>.1.1.a.c b 1.w.4.<.>.s.E i ~ 4.;.>.s.<.:.O F.@X^. X6X",
"l.' } w.M ; p.2.d J 8.1.u.8.8.w.h D 1.w.1.<.>.a.E j ;.a.1.>.1.8.8.f X N.OX^. X6X",
"V.' } w.t 1 d.u J :.1.;.,.,.t.j h ;.;.;.<.;.2.J g E t.8.1.<.>.<.a N O N.oX`. X6X",
"x.' } r.t ; m K <.<.,.E ..t.m m :.J ..;.E ;.H a J O.;.;.J 1.;.s ....@ F.@X`. X6X",
"x.' ) w.C   J X.t.,.;.;.2...m 2.;.;.t...t.:.q t.<.O...O.;.<.a H :...O F.;X^. X5X",
"x.' ) 0. .X <.X.X.....t. .f ..,.;.;...t.H f ;.;.O.J ..2.<.m O.;.o.H O Y.oX`. X5X",
"x.` } e.y X ,.<.<.X.t.m m <.,.....;.t. .N ..,.;.,.O.;.;.a H ,.,.<.o.O N.;X}. X5X",
"x.` ' 0.t O O.1.X.t.m m <.X.<.....t...q ..,.O...O.t.<.f H ......<.o.O N.;X~.oX6X",
"v.` ) 0.y O ;.1.2.m g ,.;.<.t...t...3 ,.;.....X.<.2.f ..<.O...O.<.i.O Y.+X_. X5X",
"x.[ ' 0.y O ;.,.m S #.;.;.O...t...f ,.2.,.....<.;.f J ..<...O.t.i.r . H.+X}..X5X",
"x.` ] 0.y O y.S m ;.......;.2. .m ..,.;... .<.;.q ..<.2.H ..;.2.g A @ B.oX X X6X",
"v.[ ' 0.C $ H j ;...;.;...p...f ..<.O.....p.2.q  ...O.......t.N G o.O Y.oX_. X6X",
"v.` ] 0.t . g ;.X.,.2...t...q ..,.,...;.2.<.q ..;.....,.O.t.m m $.H @ Y.,X X X6X",
"v.` 3.0.r @ O.O.X.X...p.H f X.X.,...X.<.X.q H ,.<.....p.<.N m <.O. .O F.+X_. X6X",
"Z.` 6.G.x + $.<.O...2.G j X.2.2.;.X.J 2.a J :.....:...2.f N #.O.#.#.* =X3XOX_. X",
"v.5.Q k R # <.#.;.p.<.m ..<.2...;.<.t.S ..<.7.O.<.o.y.H Y *.+.#.Z o.+ x I <XOX8X",
"A.z.W 7 x + > # * & + X % $ + X * % . X $ @ O O O O O O O O @ . @ $   Y P ;X1XrX",
"T.S.0.:.k B R B B B B +.@.+.+.*.*.+.*.*.*.*.=.=.%.%.%.g.-.g.=.9.&.*.9.U %X].P.8X",
"6 7 G.s 7.8 8 '.[ [ ] f.J.(.(.(.(.(.<X<X2X<X:X<X:X:X;X1X:X1X+X2XS.= =XZ.n 5.# g.",
"d.N B S.V.^ Y e.( ( f.f.j.f.j.j.j.j.).`.@X`.`.`. XoX`.`. X X`. X'.m.T.qXJ.z 0.>X",
"U.H R k r.Z.` ` ( | f.f.W.W.W.W.W.W.[.{.@X{.@X{.[.@X`. X@X#X XOX;XqX%XW W Z.Y %X",
"V $.y.< :.0.` ] _ { | | f.f.f.f.| j.Q.).W.W.l.b.l.b.l.b.l.!.f.b.A.&X'.8 0 >XW Y "
};
