/* XPM */
static char *_674573107348[] = {
/* columns rows colors chars-per-pixel */
"40 40 202 2 ",
"   c black",
".  c #141002",
"X  c #171202",
"o  c #171302",
"O  c #181303",
"+  c #1B1503",
"@  c #1B1603",
"#  c #1E1803",
"$  c #1F1803",
"%  c #342906",
"&  c #352A06",
"*  c #362B06",
"=  c #382C06",
"-  c #3A2E07",
";  c #3B2F07",
":  c #3D3007",
">  c #3E3107",
",  c #433607",
"<  c #433608",
"1  c #473908",
"2  c #4D3E09",
"3  c #524109",
"4  c #52410A",
"5  c #52420A",
"6  c #564409",
"7  c #5A470A",
"8  c #5E4B0B",
"9  c #5A480F",
"0  c #5E4C10",
"q  c #604C0B",
"w  c #614D0B",
"e  c #634F0C",
"r  c #785F0E",
"t  c #7A610D",
"y  c #78600E",
"u  c #79600E",
"i  c #7A610E",
"p  c #7A610F",
"a  c #7D640F",
"s  c #7E640F",
"d  c #7F650F",
"f  c #80650E",
"g  c #80660F",
"h  c #9F7C0F",
"j  c #856A10",
"k  c #876B10",
"l  c #8B6E10",
"z  c #8C6F11",
"x  c #9B7B12",
"c  c #9B7D13",
"v  c #A27F0F",
"b  c #A07F13",
"n  c #A08113",
"m  c #BC9616",
"M  c #BF9817",
"N  c #A68A2B",
"B  c #AA8D2D",
"V  c #C29A17",
"C  c #DEA200",
"Z  c #DEA300",
"A  c #DFA400",
"S  c #DFAE14",
"D  c #D4AA1A",
"F  c #D8AD1A",
"G  c #DDB01A",
"H  c #DDB01B",
"J  c #DFB11B",
"K  c #E0A500",
"L  c #E2A702",
"P  c #E2A802",
"I  c #E3A903",
"U  c #E3AA04",
"Y  c #E4AA04",
"T  c #E4AA05",
"R  c #E7AE08",
"E  c #E8AF08",
"W  c #EAB20A",
"Q  c #EBB20B",
"!  c #ECB40C",
"~  c #EDB50D",
"^  c #EDB60F",
"/  c #EEB60E",
"(  c #EEB70E",
")  c #EEB70F",
"_  c #EFB70F",
"`  c #EFB80F",
"'  c #F0B80F",
"]  c #E0B119",
"[  c #E0B21B",
"{  c #E2B41B",
"}  c #E9B91C",
"|  c #EABA1C",
" . c #EABB1C",
".. c #EBBB1C",
"X. c #F0B910",
"o. c #F1BA11",
"O. c #F5BF15",
"+. c #F5C115",
"@. c #F6C016",
"#. c #F6C116",
"$. c #F6C217",
"%. c #F4C11A",
"&. c #F6C21B",
"*. c #F7C71D",
"=. c #F7C71E",
"-. c #F8C218",
";. c #F9C419",
":. c #F9C51A",
">. c #FAC51A",
",. c #FBC61B",
"<. c #FBC71B",
"1. c #FCC71B",
"2. c #FAC71E",
"3. c #FCC71C",
"4. c #FFC91B",
"5. c #FFCB1A",
"6. c #FFCA1B",
"7. c #F8C81D",
"8. c #F8C81E",
"9. c #FAC81E",
"0. c #FAC81F",
"q. c #FACA1E",
"w. c #FCC81C",
"e. c #FDC81C",
"r. c #FCC81D",
"t. c #FFCA1C",
"y. c #FFCA1D",
"u. c #FCC81E",
"i. c #FEC91E",
"p. c #FCCB1F",
"a. c #FECA1E",
"s. c #FFCA1E",
"d. c #FFCB1E",
"f. c #FFCA1F",
"g. c #FFCB1F",
"h. c #FFCD1C",
"j. c #FFCC1E",
"k. c #FFCD1E",
"l. c #FFCC1F",
"z. c #FFCD1F",
"x. c #FFCE1F",
"c. c #FFD01D",
"v. c #FFCB20",
"b. c #FFCB21",
"n. c #FFCB22",
"m. c #FFCD20",
"M. c #FFCF20",
"N. c #FFCC23",
"B. c #FFCD28",
"V. c #FFCD2A",
"C. c #FFCE2B",
"Z. c #F8CA2F",
"A. c #FFCF2E",
"S. c #FFD120",
"D. c #FFD220",
"F. c #E8C23F",
"G. c #F9CB30",
"H. c #FFCF31",
"J. c #FFD031",
"K. c #FFD034",
"L. c #FFD135",
"P. c #FFD136",
"I. c #FFD33D",
"U. c #E9C341",
"Y. c #FFD645",
"T. c #FFD748",
"R. c #FFD649",
"E. c #FFD64B",
"W. c #FFD74F",
"Q. c #FFD950",
"!. c #FFDA50",
"~. c #FFDB5E",
"^. c #FFDC60",
"/. c #FFDC61",
"(. c #FDDD67",
"). c #FFDE68",
"_. c #FFDE69",
"`. c #FDDD6A",
"'. c #FFDF6A",
"]. c #FFDF6B",
"[. c #FFE173",
"{. c #FFE175",
"}. c #FFE277",
"|. c #FFE47D",
" X c #FFE47F",
".X c #FFE88C",
"XX c #FFE88F",
"oX c #FEEC9E",
"OX c #FEEC9F",
"+X c #FFEDA0",
"@X c #FFEEA3",
"#X c #FFEEA5",
"$X c #FFEFA6",
"%X c #FFEFA7",
"&X c #FFEFA8",
"*X c #FFF2B3",
"=X c #FFF2B4",
"-X c #FFF3B6",
";X c #FFF3B8",
":X c #FFF4BA",
">X c #FFF5BD",
",X c none",
/* pixels */
",X,X,X,X,X,X,X,X,X,X,X,X,X                            ,X,X,X,X,X,X,X,X,X,X,X,X,X",
",X,X,X,X,X,X,X,X,X,X,X,X,X                              ,X,X,X,X,X,X,X,X,X,X,X,X",
",X,X,X,X,X,X,X,X        8 c x x x x x x x x x x x x c w         ,X,X,X,X,X,X,X,X",
",X,X,X,X,X,X,X,X        p S.M.M.M.M.M.M.M.M.M.M.M.M.D.g           ,X,X,X,X,X,X,X",
",X,X,X,X,X,X,X- 2 2 2 2 h +.O.O.O.O.O.O.O.O.O.O.O.O.+.v 2 2 2 2 ; ,X,X,X,X,X,X,X",
",X,X,X,X,X    u q.2.2.0.) A K K K K K K K K K K K K A ^ 9.2.2.q.s     ,X,X,X,X,X",
",X,X,X,X,X. . j z.a.e.w.' L P P P P P P P P P P P P L X.g.g.g.z.l . . ,X,X,X,X,X",
",X,X,X  + m D } g.3.E T _ :.;.;.;.;.;.;.;.;.;.;.;.;.;.3.g.g.d.g.| D M #   ,X,X,X",
",X,X,X  @ J x.l.g.<.I Z ( g.g.g.g.g.g.g.g.g.g.g.g.g.g.g.f.s.y.y.d.x.{ $     ,X,X",
",X,X,X  @ G z.@.~ / X.o.-.g.g.g.g.g.g.g.g.g.g.g.g.g.g.g.s.B.).{.R.j.[ $   ,X,X,X",
",X,X,X  O H m.` C P ,.g.g.s.g.g.g.g.g.g.g.g.g.g.g.g.g.g.y.H.$X>X].5.] @   ,X,X,X",
",X,X% < 6 S $.` R W 3.g.g.g.g.g.g.g.g.g.g.g.g.g.g.g.g.g.s.C. XXX'.Y.F.9 , & ,X,X",
"    r =.%.U K ( a.i.a.g.g.g.g.g.g.g.g.g.g.g.g.g.g.g.g.g.s.g.N.b._.*XoXZ.*.a     ",
"    i x.1.Y A ( g.g.g.g.g.g.g.g.g.g.g.g.g.g.g.g.g.g.g.g.g.s.s.t._.;X@XJ.k.d     ",
"    i z.,.Y A ( g.g.g.g.g.g.g.g.g.g.g.g.g.g.g.g.g.g.g.g.g.g.g.t._.;X@XH.k.d     ",
"    i z.,.Y A ( g.g.g.g.g.g.g.g.g.g.g.g.g.g.g.g.g.g.g.g.g.g.g.t._.;X@XH.k.d     ",
"    i z.,.Y A ( g.g.g.g.g.g.g.g.g.g.g.g.g.g.g.g.g.g.g.g.g.g.g.t._.;X@XH.k.d     ",
"    i z.,.Y A ( g.g.g.g.g.g.g.g.g.g.g.g.g.g.g.g.g.g.g.g.g.g.g.t._.;X@XH.k.d     ",
"    i z.,.Y A ( g.g.g.g.g.g.g.g.g.g.g.g.g.g.g.g.g.g.g.g.g.g.g.t._.;X@XH.k.d     ",
"    i z.,.Y A ( g.g.g.g.g.g.g.g.g.g.g.g.g.g.g.g.g.g.g.g.g.g.g.t._.;X@XH.k.d     ",
"    i z.,.Y A ( g.g.g.g.g.g.g.g.g.g.g.g.g.g.g.g.g.g.g.g.g.g.g.t._.;X@XH.k.d     ",
"    i z.,.Y A ( g.g.g.g.g.g.g.g.g.g.g.g.g.g.g.g.g.g.g.g.g.g.g.t._.;X@XH.k.d     ",
"    i z.,.Y A ( g.g.g.g.g.g.g.g.g.g.g.g.g.g.g.g.g.g.g.g.g.g.g.t._.;X@XH.k.d     ",
"    i z.,.Y A ( g.g.g.g.g.g.g.g.g.g.g.g.g.g.g.g.g.g.g.g.g.g.g.t._.;X@XH.k.d     ",
"    i z.,.Y A ( g.g.g.g.g.g.g.g.g.g.g.g.g.g.g.g.g.g.g.g.g.g.g.t._.;X@XH.k.d     ",
"    i z.,.Y A ( g.g.g.g.g.g.g.g.g.g.g.g.g.g.g.g.g.g.g.g.g.g.g.t._.;X@XH.k.d     ",
"    i x.<.Y A ( g.g.g.g.g.g.g.g.g.g.g.g.g.g.g.g.g.g.g.g.g.s.s.t._.;X@XJ.k.d     ",
"    y 8.&.U K ( a.a.a.g.g.g.g.g.g.g.g.g.g.g.g.g.g.g.g.g.s.g.n.v._.=XOXG.7.s     ",
",X,X* 1 7 S #.` E Q 3.g.g.g.g.g.g.g.g.g.g.g.g.g.g.g.g.g.s.C.|..X'.T.U.0 1 = ,X,X",
",X,X,X  O H m.` C P >.g.g.g.g.g.g.g.g.g.g.g.g.g.g.g.g.y.4.A.$X>X].5.] +   ,X,X,X",
",X,X,X  @ G z.@.! ( w.g.g.g.g.g.g.g.g.g.g.g.g.g.g.g.s.I.~.^.[.}.E.j.[ $   ,X,X,X",
",X,X,X  @ J x.l.g.g.g.g.s.y.y.y.y.y.y.y.y.y.y.y.y.y.6._.:X#XH.t.d.x.{ $     ,X,X",
",X,X,X  + M F  .g.g.g.s.V.P.L.L.L.L.L.L.L.L.L.L.L.L.K._.+XXXA.d...F V #   ,X,X,X",
",X,X,X,X,XX o k z.g.g.y./.&X%X%X%X%X%X%X%X%X%X%X%X%X&X'.C.C.v.z.z o X ,X,X,X,X,X",
",X,X,X,X,X    u p.u.u.w.(.-X=X=X=X=X=X=X=X=X=X=X=X=X-X`.1.r.u.p.d     ,X,X,X,X,X",
",X,X,X,X,X,X,X: 5 4 4 3 N Q.W.W.W.W.W.W.W.W.W.W.W.W.!.B 3 4 4 5 > ,X,X,X,X,X,X,X",
",X,X,X,X,X,X,X,X        t c.h.h.h.h.h.h.h.h.h.h.h.h.c.f           ,X,X,X,X,X,X,X",
",X,X,X,X,X,X,X,X        q n b b b b b b b b b b b b n e         ,X,X,X,X,X,X,X,X",
",X,X,X,X,X,X,X,X,X,X,X,X,X                              ,X,X,X,X,X,X,X,X,X,X,X,X",
",X,X,X,X,X,X,X,X,X,X,X,X,X                              ,X,X,X,X,X,X,X,X,X,X,X,X"
};
