/* XPM */
static char *_675086489298[] = {
/* columns rows colors chars-per-pixel */
"40 40 215 2 ",
"   c #030201",
".  c #0A0601",
"X  c #0E0902",
"o  c #140C03",
"O  c #180F04",
"+  c #1C1104",
"@  c #151003",
"#  c #231605",
"$  c #251905",
"%  c #2A1B06",
"&  c #3B2509",
"*  c #362506",
"=  c #43280B",
"-  c #493109",
";  c #54330D",
":  c #5C380E",
">  c #58380D",
",  c #663D11",
"<  c #633B0F",
"1  c #533E25",
"2  c #77550E",
"3  c #6F4212",
"4  c #724511",
"5  c #784912",
"6  c #6C4C0B",
"7  c #795A36",
"8  c #835511",
"9  c #845A10",
"0  c #8B5C12",
"q  c #855516",
"w  c #915E13",
"e  c #9B5E17",
"r  c #855B0F",
"t  c #86640B",
"y  c #98680F",
"u  c #97750C",
"i  c #926311",
"p  c #996712",
"a  c #9D6B12",
"s  c #9B6C1B",
"d  c #9F7114",
"f  c #896511",
"g  c #A97A0E",
"h  c #B57E0F",
"j  c #A26517",
"k  c #AB6E17",
"l  c #A36917",
"z  c #AB7316",
"x  c #A77715",
"c  c #B37B16",
"v  c #8E6424",
"b  c #9B6E23",
"n  c #A97727",
"m  c #B37820",
"M  c #8F6F4B",
"N  c #B97B56",
"B  c #BB7D58",
"V  c #9D830C",
"C  c #9F8216",
"Z  c #AB840D",
"A  c #A1830C",
"S  c #B6850D",
"D  c #BF950F",
"F  c #BD8612",
"G  c #BE8914",
"H  c #BD9512",
"J  c #AE8414",
"K  c #C1970E",
"L  c #C38616",
"P  c #C38C13",
"I  c #C39213",
"U  c #CB9213",
"Y  c #C99719",
"T  c #D39515",
"R  c #D59B13",
"E  c #CDA30D",
"W  c #D1A70E",
"Q  c #CCA416",
"!  c #DAA313",
"~  c #D8AD19",
"^  c #DCB51D",
"/  c #E7AB13",
"(  c #E9BB13",
")  c #F4B614",
"_  c #F7B914",
"`  c #FABB15",
"'  c #F6B91C",
"]  c #FABC19",
"[  c #F1B51D",
"{  c #C39221",
"}  c #CD993F",
"|  c #D29E3E",
" . c #DDA633",
".. c #D8A339",
"X. c #DCAF3C",
"o. c #DAA439",
"O. c #D3B935",
"+. c #D5B738",
"@. c #D1AF2A",
"#. c #E4AB2D",
"$. c #E9AF28",
"%. c #EBB126",
"&. c #E7B926",
"*. c #E5B529",
"=. c #F1B521",
"-. c #F0BA25",
";. c #E1A930",
":. c #E8BB34",
">. c #F0B233",
",. c #F2C507",
"<. c #F3C70D",
"1. c #EBC413",
"2. c #F3C711",
"3. c #F3CA14",
"4. c #F3C91A",
"5. c #FBC81E",
"6. c #F7D115",
"7. c #F8D216",
"8. c #DFC23B",
"9. c #E8C722",
"0. c #E6C524",
"q. c #F4CB25",
"w. c #F5CD2C",
"e. c #FBC125",
"r. c #EBC53C",
"t. c #E6C535",
"y. c #F4CD32",
"u. c #F5CE39",
"i. c #FFCB38",
"p. c #FBC738",
"a. c #FAD535",
"s. c #FEDB35",
"d. c #F6D13C",
"f. c #F6D235",
"g. c #F8D223",
"h. c #BE825C",
"j. c #AF9F5C",
"k. c #B28943",
"l. c #B99F7C",
"z. c #C28F4F",
"x. c #D19C40",
"c. c #C18D53",
"v. c #C0845B",
"b. c #C88C58",
"n. c #C7935D",
"m. c #C79752",
"M. c #C39642",
"N. c #D9AA4F",
"B. c #C9A151",
"V. c #D8B24F",
"C. c #E6BA48",
"Z. c #E2B352",
"A. c #C38B64",
"S. c #CB966D",
"D. c #CA9665",
"F. c #C28E70",
"G. c #D7A86C",
"H. c #DEB165",
"J. c #C4A171",
"K. c #D6A878",
"L. c #DAB279",
"P. c #E7BD6F",
"I. c #E2BA76",
"U. c #DFC35A",
"Y. c #D9C14D",
"T. c #EBC249",
"R. c #F6D246",
"E. c #FFDF49",
"W. c #FAD24C",
"Q. c #F5D553",
"!. c #F8D75D",
"~. c #F6D859",
"^. c #F9D957",
"/. c #DFC869",
"(. c #F5D96A",
"). c #E7C679",
"_. c #F8DC74",
"`. c #F9DD7C",
"'. c #F3D578",
"]. c #EBD877",
"[. c #F8E079",
"{. c #DEB587",
"}. c #D3B493",
"|. c #E4BE92",
" X c #DFD080",
".X c #EAC686",
"XX c #EAD488",
"oX c #F3D284",
"OX c #FADE86",
"+X c #EBCA9C",
"@X c #F6DA96",
"#X c #E9D895",
"$X c #FEE48D",
"%X c #FCE382",
"&X c #FBE096",
"*X c #FDE49F",
"=X c #EBCCA0",
"-X c #F4DCAC",
";X c #FBE3A4",
":X c #FCE8A9",
">X c #F9E4B4",
",X c #FDEAB5",
"<X c #FDECBA",
"1X c #ECE2B4",
"2X c #FFEFCF",
"3X c #FEF1C8",
"4X c #FFEFD0",
"5X c #FEF4D7",
"6X c #FEF9E5",
"7X c #F9F7EC",
"8X c #FBF5EA",
"9X c #FEFCF3",
"0X c #FFFEFD",
"qX c #EEE9E2",
"wX c none",
/* pixels */
"wXwXwXwXwXwXwXwXwXwXwXwXwX# X X X o o O o o o o o o X .   , wXwXwXwXwXwXwXwXwXwX",
"wXwXwXwXwXwXwXwXwXwX, ; 0 J D D D D I D I p # o o + + o     4 4 wXwXwXwXwXwXwXwX",
"wXwXwXwXwXwXwXwXwXwX      t.r.u.a.s.s.u.7.I 8 2 O o 1 X . . .   # wXwXwXwXwXwXwX",
"wXwXwXwXwXwXwX  X . V 1.y.D.N A.h.A.h.N b.-.3.3.f M qX7 X   .   +   o wXwXwXwXwX",
"wXwXwXwXwXwX  2 g Q A.h.).W.R.W.C.T.T.Z.@XD.P.>.! U.8XM p U P P P - y wXwXwXwXwX",
"wXwXwXwXo   f u.E.N.G.L.(.3.,.,.<.,.,.4.`.oXoXh.Z.%X7Xk.h R R R U P > < wXwXwXwX",
"wXwXwXwX  2 g.L.{.{.o.2.<.<.<.<.<.<.<.<.<.<.y..X=X5X9XW.P O .     .     # wXwXwX",
"wXwXwX  . r..XV.y.y.2.<.,.<.<.<.<.<.<.<.,.,.2.w.>X0X0X5X'.S X y / / Z G o wXwXwX",
"wXwXwX. E E.|.N.,.<.<.<.<.<.<.<.<.<.1.4.(.[.[.[.5X0X0X0X3X'.l.M.T T T F = 5 wXwX",
"wXwXwXX ~ E.S.y.,.,.<.,.<.<.<.<.<.<.<.q.3X6X6X6X9X0X0X0X9X7X6XJ.# q j j % O 5 wX",
"wXwX$ A `.OX:.2.<.<.<.<.<.<.<.<.<.<.,.<.q.w.w.w.<X0X0X0X1XY.a.{ k / ) _ ) 8 , wX",
"wX3 * A L.G.<.<.<.<.<.<.3.<.<.,.<.<.<.<.<.<.<.<.^.:X0X6X#XO.6.I j L L L L O ; wX",
"wX3 * u XXG.<.<.<.<.3.<.<.<.<.3.<.<.<.<.<.<.<.<.,.^.9X2XXXO.6.I e k k k k 8 0 wX",
"wX4 f 4.OXG.2.<.<.<.<.<.<.<.<.<.<.<.<.<.<.<.<.<.,.^.0X2XXXO.6.P k ) _ _ _ _ G > ",
"4 g @ %X!.y.<.<.<.<.<.<.<.<.<.<.<.<.<.<.<.<.<.<.,.~.9X(.(.XX8.^ ~ ;. . . . .m   ",
"o Z t.|.R.,.<.<.2.<.<.<.<.<.<.<.<.<.<.<.<.<.<.<.<.d.:Xw.~.>XB.9.4.x... . . .n   ",
"X g r.S.R.,.<.<.<.<.<.<.<.<.<.<.<.<.<.<.<.<.<.<.,.2.2.,.!.;Xm.9.4.| %.` ] 5.J . ",
"X Z u.A.R.<.<.<.<.<.<.<.<.<.<.<.<.<.3.<.,.3.<.3.<.<.<.<.(.+Xm.9.4.| ....| o.b . ",
"X Z s.+XR.<.<.<.<.<.<.<.<.3.<.<.<.<.<.<.<.<.3.<.<.<.<.,.!.-Xc.9.4.|  .#.#.#.l X ",
"X Z s.,XR.,.<.<.6.<.<.<.<.<.<.<.<.<.<.<.<.<.,.<.<.<.<.,.!.-Xc.9.4.} %.] ` ` x X ",
"  D u.A.R.<.<.<.<.<.<.<.<.<.3.<.<.<.<.3.<.<.<.<.<.<.<.<.!.+Xh.4.4.x.| ....x.v o ",
". D a.K.R.,.<.<.<.<.<.<.<.<.<.<.<.<.<.<.3.,.,.3.<.<.<.,.!.>Xm.9.4.x. .%.*.*.s o ",
"X D s.<XR.<.<.<.<.<.<.<.<.<.<.<.<.<.<.3.,.3.,.<.<.2.2.,.!.;Xl.].~.x.%.' [ ] s o ",
". H s.S.R.<.<.<.<.<.<.<.<.<.<.<.<.<.<.<.3.,.<.<.<.<.<.,.!.>X}.j.).N.x.| x.x.v o ",
"  Z s.K.R.,.,.<.<.<.<.<.<.<.<.<.<.<.<.<.<.<.<.<.<.<.<.,.!.>XL. X'...#.=.%.' x . ",
"; Z @.OX!.y.<.<.3.<.<.<.<.<.<.<.<.<.<.<.<.<.2.<.<.<.<.u.(.h.V.t.*.x.#.%.=.=.c   ",
"wX4   1.&XOX2.<.<.<.<.<.<.<.<.3.3.<.2.<.<.<.<.<.<.<.4.@Xh.+.6.^ x.x.| | ..M.n O ",
"wX3 . 1.$X).<.<.<.,.3.<.<.<.<.<.<.<.<.<.<.<.<.<.<.<.4.@Xh.O.7.Y c [ ' ' [ s q wX",
"wX3 . ( $Xv.1.<.<.<.2.<.<.<.<.<.<.<.<.<.<.<.<.<.<.<.3.*Xh.O.7.I . o T F U % & wX",
"wXwX+ 1.`.G.q.3.,.<.<.<.<.<.<.<.<.<.<.<.<.<.<.<.,.1.w.&XD.O.1.I 0 $ # o . . ; wX",
"wXwXwX& d E.;Xw.,.3.<.<.<.<.<.3.,.3.<.<.<.<.<.<.<.R.:Xn.t.1.z T _ ) # X 6 + : wX",
"wXwXwX@ Q E.|.:.,.<.<.<.<.<.<.<.<.<.<.<.<.<.<.,.,.R.>XB 0.3.l z L L L F c 0 wXwX",
"wXwXwX; K @.L.T.f.y.2.<.,.<.<.<.<.<.<.<.<.<.3.y.w.~.@XN ^ ~ c z z k k w o wXwXwX",
"wXwXwXwX: % -.&X,XK.q.,.2.<.<.<.<.<.<.<.2.<.y.:X<XL.c.&.I 8 / ` _ _ _ F O wXwXwX",
"wXwXwXwXwX0 $ r.E.Z.OXoXH.2.,.,.,.<.,.4.`.$XP./.m.C.*.J 0 % 6 a a a i p wXwXwXwX",
"wXwXwXwXwXwX> D W ~ OX.XG.W.R.W.R.R.R.Q.#X@XD.X.~ W Q x a r a a w o o ; wXwXwXwX",
"wXwXwXwXwXwXwX5 $ X H 3.f.:X,X|.B h.=X;XV.&._ ) * o # R _ _ _ _ ! X wXwXwXwXwXwX",
"wXwXwXwXwXwXwXwXwXwX@ @ x p.i.i.p.p.i.i.5.G 0 @ o .   0 w w w 0 0 wXwXwXwXwXwXwX",
"wXwXwXwXwXwXwXwXwXwXwX= X g g a g S F F P i + . X . X & # $ 4 4 wXwXwXwXwXwXwXwX",
"wXwXwXwXwXwXwXwXwXwXwXwXwXo X o X .           X   O X o # < wXwXwXwXwXwXwXwXwXwX"
};
