/* XPM */
static char *_675156627503[] = {
/* columns rows colors chars-per-pixel */
"40 40 108 2 ",
"   c #0D0416",
".  c #110517",
"X  c #140C1E",
"o  c #1B0D1E",
"O  c #211809",
"+  c #22091A",
"@  c #290B1B",
"#  c #3C0512",
"$  c #3D0D1C",
"%  c #31101F",
"&  c #3B121C",
"*  c #3A241D",
"=  c #3B391C",
"-  c #0E0E20",
";  c #160F20",
":  c #190F20",
">  c #161222",
",  c #1B1222",
"<  c #1E1C29",
"1  c #260721",
"2  c #230F21",
"3  c #290D21",
"4  c #251120",
"5  c #2C1221",
"6  c #231926",
"7  c #221C29",
"8  c #2F1E2E",
"9  c #341221",
"0  c #3B1321",
"q  c #381C27",
"w  c #351D29",
"e  c #3B1E29",
"r  c #24232C",
"t  c #28242E",
"y  c #392029",
"u  c #232232",
"i  c #2B2733",
"p  c #2B2A32",
"a  c #2C3237",
"s  c #2C3439",
"d  c #303F33",
"f  c #323439",
"g  c #363B3E",
"h  c #3A3C3E",
"j  c #470A1F",
"k  c #5D0A14",
"l  c #42111D",
"z  c #4A101F",
"x  c #52111E",
"c  c #501918",
"v  c #66141E",
"b  c #470D22",
"n  c #441422",
"m  c #4A1421",
"M  c #481925",
"N  c #561522",
"B  c #5B1622",
"V  c #551F28",
"C  c #620F20",
"Z  c #680E22",
"A  c #641622",
"S  c #6C1621",
"D  c #671823",
"F  c #6C1924",
"G  c #731521",
"H  c #7C1520",
"J  c #741823",
"K  c #7C1A24",
"L  c #4B212B",
"P  c #52232C",
"I  c #5E242C",
"U  c #5B282F",
"Y  c #4C2B32",
"T  c #542C31",
"R  c #5A2D33",
"E  c #463539",
"W  c #4A3538",
"Q  c #423B3D",
"!  c #62212A",
"~  c #7B202D",
"^  c #642539",
"/  c #294F1E",
"(  c #136217",
")  c #264126",
"_  c #25442F",
"`  c #355025",
"'  c #44441C",
"]  c #4F533D",
"[  c #427139",
"{  c #363F40",
"}  c #3A3F40",
"|  c #423F40",
" . c #364242",
".. c #3A4041",
"X. c #424040",
"o. c #434E42",
"O. c #494552",
"+. c #5A4F5B",
"@. c #665D68",
"#. c #85636C",
"$. c #996A7A",
"%. c #907E77",
"&. c #34850F",
"*. c #5DA109",
"=. c #478B37",
"-. c #45893A",
";. c #B8C7B9",
":. c white",
/* pixels */
"........................................} ......................................",
"............................} ................................} ........} ......",
"........................................................................X.......",
"..............} ........................................................ .} ..} ",
"............................} ..} } } } } } } ..................................",
"....} ....................} .... . . . . .} ..} ................................",
"........................} ..h  .E T T R W ..} ........} ..........} ............",
"..........................}  .W S G v $ N W ..} } ..............................",
"............................E S S D F m : N ....} ..............................",
"......................} .. .Y z K D 0 S 9 P | ..} ..............................",
"........................}  .Y o $ @ : N > L | ..} ..........} ..................",
"..............} ......} } h V 8 u i , S n 4 X...} ............................} ",
"................} ....} ..X.$ O.+.@.< % D : f ..} ..............................",
"} ..................} } ..Q M   . . X : D o 7 ..} } ................} ..........",
"......................}  .R S , : : ; N B ; , } ..} } ..........................",
"....................} ....w S N ; : N J 2 5 S T  .} ..} ....................} ..",
"..........} ....} } }  .T x 5 D 5 n K 0 4 F J S E  .} } } ......................",
"..................} } } F J N 0 m N m 9 D m J G ! ..} | } ..} ..................",
"................} } { I S N J n B M B G S o 0 m D h ..| ........................",
"....................E G A 0 B G J B F F 4 5 5 n A T  ._ ..........} ............",
"......} .......... .T G D n 0 D D G k # j F D n H T  ...........................",
"................}  .T G N m % n A ~ #.$.^ v F J x a ......................} ....",
"................} ..| B 0 9 0 0 k %.:.;._ Z J N ; i ............................",
"................} { | M 9 A m n & ] $.o.` Z F o ; { ..} ........................",
"................} } } e F J : 0 4 z O ) 6 A % ; 7 } } } } } } } ..} ............",
"..........} ....} } { e Z B 0 5 & D / _ b m - X a } } } } } } } ................",
"................ .} }  .L 0 N 4 b = &.-.e + ; , } } } }  .} } } ................",
"................} } }  .R N B 3 1 ' *.=.7 X : : } } } } } } } } ................",
"...................._ } ..w z 9 3 * ( [ 2 i : 6 ..} } ..} ......................",
"....................| | ..s 0 B 4 n 0 : : g ; f ..} ............................",
"........} ..................p x 5 m 0 > u p u ......} ..........................",
"............................g 4 + U q < } 7 } ......} ....................} ....",
"..........................} ..f < B V a f f .... .} ............................",
"................................} } I } } } } ..} ......} ......................",
"................} ........} ....{ } | ..} { } } ............................} ..",
"....} ......................} ..} } } } } } ....................................",
"..............................} ..} } ..} ......................................",
"......................................} ..............} ........................",
"............} ..} ..............................................................",
"................................................................} .............."
};
