/* XPM */
static char *_675156635970[] = {
/* columns rows colors chars-per-pixel */
"40 40 147 2 ",
"   c #050414",
".  c #0A0719",
"X  c #0A0B1D",
"o  c #13051C",
"O  c #140B1D",
"+  c #1A0D1F",
"@  c #260717",
"#  c #21071F",
"$  c #230C1D",
"%  c #2D0D1D",
"&  c #350E1E",
"*  c #3C0F1E",
"=  c #2B1F1B",
"-  c #34101F",
";  c #3D1E1A",
":  c #3E2717",
">  c #150F20",
",  c #190F20",
"<  c #141222",
"1  c #1A1222",
"2  c #1F1826",
"3  c #251020",
"4  c #2C1121",
"5  c #201925",
"6  c #2C1F26",
"7  c #231C29",
"8  c #351221",
"9  c #3B1221",
"0  c #381D28",
"q  c #17272E",
"w  c #26232E",
"e  c #2B232E",
"r  c #3C3A2F",
"t  c #252730",
"y  c #2B2532",
"u  c #2C2A32",
"i  c #2D3439",
"p  c #2E3E3E",
"a  c #303237",
"s  c #3E3E32",
"d  c #313338",
"f  c #3C3539",
"g  c #353D3E",
"h  c #3C3D3F",
"j  c #400F1E",
"k  c #4D0D1F",
"l  c #471C15",
"z  c #44121F",
"x  c #4F101F",
"c  c #65111C",
"v  c #69141E",
"b  c #4F201A",
"n  c #441321",
"m  c #4A1321",
"M  c #421824",
"N  c #4D1927",
"B  c #4B1F29",
"V  c #541421",
"C  c #5C1622",
"Z  c #5C1824",
"A  c #5E1B2A",
"S  c #631622",
"D  c #6B1621",
"F  c #671923",
"G  c #6D1923",
"H  c #641C2A",
"J  c #751622",
"K  c #731923",
"L  c #7B1A24",
"P  c #462127",
"I  c #4A2428",
"U  c #57222B",
"Y  c #492131",
"T  c #452930",
"R  c #4D2D33",
"E  c #522E33",
"W  c #4B3337",
"Q  c #473639",
"!  c #4D3538",
"~  c #413A3D",
"^  c #563035",
"/  c #563E36",
"(  c #63242C",
")  c #623127",
"_  c #60352A",
"`  c #602231",
"'  c #682D3C",
"]  c #622A3B",
"[  c #732F3D",
"{  c #7C2E3D",
"}  c #334216",
"|  c #336B11",
" . c #294A2A",
".. c #234E22",
"X. c #2F522E",
"o. c #3E423F",
"O. c #3F5B3C",
"+. c #3F633F",
"@. c #3D6A3A",
"#. c #277728",
"$. c #49443C",
"%. c #574E39",
"&. c #714C2F",
"*. c #75502F",
"=. c #2F3D44",
"-. c #353E41",
";. c #3A3F40",
":. c #433B41",
">. c #364243",
",. c #3A4041",
"<. c #434243",
"1. c #504546",
"2. c #584749",
"3. c #4B4653",
"4. c #564E5A",
"5. c #664448",
"6. c #764249",
"7. c #72494F",
"8. c #575964",
"9. c #695C63",
"0. c #636566",
"q. c #77616A",
"w. c #862632",
"e. c #8E2732",
"r. c #942934",
"t. c #A3323E",
"y. c #B25318",
"u. c #995930",
"i. c #A55724",
"p. c #C35A34",
"a. c #DC763C",
"s. c #A83441",
"d. c #86464D",
"f. c #9D4D5E",
"g. c #A44750",
"h. c #AB4250",
"j. c #8B7A79",
"k. c #3D9421",
"l. c #518710",
"z. c #529919",
"x. c #EABC77",
"c. c #857C83",
"v. c #BAA9A6",
"b. c #BDA6AA",
"n. c #D2C1CD",
"m. c #E6DDDE",
"M. c #E9E1E4",
/* pixels */
",.,.,.,.;.,.,.,.,.,.,.,.,.,.,.,.;.,.,.,.,.,.,.,.,.,.,.,.,.;.,.,.,.;.,.,.,.,.,.,.",
",.,.,.,.,.,.,.,.,.,.;.,.,.,.,.,.,.,.,.,.,.,.,.,.,.,.,.,.,.,.,.,.,.,.,.,.,.,.;.,.",
",.,.,.,.,.,.,.,.,.,.,.,.,.,.,.,.,.,.,.,.,.,.,.,.,.,.,.,.,.,.,.,.,.,.,.,.,.,.,.,.",
",.,.,.,.,.,.,.,.,.,.,.,.,.,.,.;.,.;.;.;.;.;.,.,.,.,.,.,.,.,.,.,.,.,.,.,.,.,.,.,.",
",.,.,.;.,.,.,.,.,.,.,.,.,.,.g ,.;.-.,.,.,.,.,.;.,.,.;.,.,.,.;.,.,.,.,.,.,.,.,.,.",
",.,.,.,.,.;.,.,.;.,.,.;.,.,.,.-.>.<.h ~ h >.g >.;.,.,.,.,.,.,.,.;.,.,.,.,.;.,.,.",
",.,.,.,.,.,.,.;.,.;.-.o.,.;.>.p 5.w.S Z F ! >.o.,.,.,.,.,.,.,.,.,.,.,.,.,.,.,.,.",
",.,.,.,.,.,.,.,.;.,.%.-.,.,.o.7.t.c G m + V ! >.;.;.,.,.,.,.,.,.,.,.,.,.,.,.,.,.",
",.,.,.,.,.,.;.,.-./ $.>.,.o.<.h.w.v C G V 4 G h ,.;.,.,.,.,.,.,.,.,.,.,.,.,.,.,.",
",.,.;.,.,.,.,.;.,.$.-.;.>.g 1.] { e.3 M & t ^ ~ ,.;.,.,.,.,.,.,.,.,.,.,.,.,.,.,.",
",.,.,.,.,.,.,.;.$.&.h ,.,.g 2.[   $ . m V < E ~ ,.;.,.,.,.,.,.,.,.,.,.,.,.,.,.,.",
",.,.,.,.,.,.;.,.>.~ ,.;.>.>.d.] 8.4.3.@ K % t ,.,.;.,.,.,.,.,.,.,.;.,.,.,.;.,.,.",
",.,.,.,.,.,.,.-.>.=.;.;.;.=.6.4 y y 6 X m m < ,.,.-.;.,.,.;.,.,.,.,.,.,.,.,.,.,.",
",.,.,.,.,.,.;.,.h &.h -.o.,.g.8 . O O > C n X d ,.;.,.,.,.,.,.,.,.,.,.,.,.,.,.,.",
",.,.;.,.,.,.;.,.-.y.i.g >.:.s.C , , > V G 1 * 7 ,.,.;.,.,.,.,.,.,.,.;.,.,.,.,.,.",
",.,.,.,.,.,.;.>.) a.x.s 7.H Y t.* > V L % - J S ! >.;.,.,.,.,.,.,.,.,.,.,.,.;.,.",
",.,.,.,.,.,.;.>._ p.u.q Y r.z 8 m n C m % Z F K D h ,.,.;.,.,.,.,.,.,.;.,.,.,.,.",
",.,.,.,.,.,.,.;.>.j.9.A & U w.S 8 C n m K n 9 F v E >.;.,.,.,.,.,.,.,.,.,.,.,.,.",
",.;.,.,.,.,.,.;.h m.M.f.e.j S K C C m L K m + 4 V U ,.;.;.,.,.,.,.,.,.,.,.,.,.,.",
",.,.,.,.,.,.,.,.g 0.q.< K x 8 S J G G S z 8 F 8 S D h ,.;.,.,.,.,.,.,.,.,.,.,.,.",
",.,.,.,.,.,.;.;.g g P $ S C m n S D c N H D J C D C g ,.;.,.,.,.,.,.,.,.,.,.,.,.",
",.,.,.,.,.,.,.,.o.,.R % Z V n 4 m K b.m.c.j D K V 1 g ,.;.,.,.;.,.,.;.,.,.,.,.,.",
";.,.,.,.,.,.,.,.;.,.T V V n F 8 V : v.n.@.I J C + 7 ,.,.;.,.,.,.,.,.,.,.;.,.,.,.",
",.,.,.,.,.,.,.,.;.,.f m n $ L C n ; l 6 X.M J 4 O u ,.;.,.,.,.,.,.,.,.,.,.,.,.,.",
",.,.,.,.;.,.,.,.g ,.,.N * , 8 n l x l ..1 V 8 O , g ,.,.,.,.,.,.,.,.,.,.,.,.,.,.",
",.,.,.,.,.,.,.,.,.>.~ I U $ 9 F C * r k.~ k < + 7 ,.,.,.,.,.,.,.,.;.,.,.,.,.,.,.",
",.,.,.,.,.,.,.,.,.,.f ^ ! e - J n V l.z.@.o 1 O u ,.,.,.,.,.,.,.,.,.,.,.,.,.,.,.",
",.,.,.,.,.,.,.,.,.,.~ W W f 1 S 3 m | k.$.o 7 O w ,.,.,.,.,.,.,.,.,.,.,.,.,.,.;.",
",.,.,.,.,.,.,.,.;.>.~ E ,.,.e C 4 9 =  .2 + ,.2 u <.g ,.,.,.,.,.,.,.,.,.,.,.,.;.",
",.,.,.,.,.;.,.,.;.,.g ,.,.,.t * n 9 x # > 7 ,.w w ,.,.,.,.,.,.,.,.,.,.,.,.,.,.,.",
",.,.,.;.,.,.,.,.,.;.,.,.,.,.-.0 S M B 3 d d ,.u u ,.-.,.,.,.;.,.,.;.,.,.,.,.,.,.",
",.,.,.,.,.,.,.,.,.,.;.;.,.,.;.i & m ( 7 g ,.g w ,.,.;.,.,.,.,.,.,.,.,.,.,.,.,.,.",
",.,.,.;.;.,.,.,.,.,.,.,.;.,.;.,.7 7 ` T -.,.g d ,.;.;.,.,.,.,.,.,.,.,.,.,.,.,.,.",
",.,.,.,.,.,.,.,.,.,.,.;.,.,.,.,.;.>.Q ! >.;.,.,.,.,.,.,.,.,.,.;.,.,.,.,.,.,.,.,.",
",.,.,.,.,.,.,.,.,.,.,.,.,.;.,.;.;.,.;.,.;.,.;.;.,.;.,.,.,.,.,.,.,.,.,.,.,.,.,.,.",
",.,.,.,.,.,.,.,.,.,.,.,.,.,.;.,.;.;.;.;.,.;.,.,.,.,.,.,.,.,.,.,.,.,.,.,.,.,.;.,.",
",.,.,.,.,.,.,.,.,.,.,.;.,.,.,.,.;.>.;.;.,.,.,.,.,.,.,.,.,.,.,.,.;.,.,.,.,.;.,.,.",
",.,.,.,.,.,.,.,.,.,.,.,.,.,.,.,.;.,.;.,.,.,.;.,.,.,.,.,.,.,.,.;.,.,.,.,.,.,.,.,.",
",.;.,.,.,.,.;.,.,.,.,.,.,.,.,.,.,.,.,.,.,.,.,.,.,.,.,.;.,.,.,.,.,.,.,.,.,.,.,.,.",
",.,.,.,.,.,.,.,.,.,.,.,.,.,.,.,.,.,.,.,.,.,.,.,.,.,.,.,.,.,.,.,.,.,.,.,.,.,.,.,."
};
