/* XPM */
static char *feab52085c0641e2ff7dce7469a63b58zoCZK1R4FWHodEFz[] = {
/* columns rows colors chars-per-pixel */
"40 40 134 2 ",
"   c None",
".  c #000001",
"X  c #060A06",
"o  c #0C0903",
"O  c #00030C",
"+  c #040B0D",
"@  c #080D0C",
"#  c #000412",
"$  c #030D13",
"%  c #0B0E14",
"&  c #010B19",
"*  c #0B1416",
"=  c #03141D",
"-  c #0F141E",
";  c #0B181F",
":  c #1C1B15",
">  c #121A1C",
",  c #18201D",
"<  c #061522",
"1  c #0C1626",
"2  c #071A23",
"3  c #0E1F27",
"4  c #02152B",
"5  c #001829",
"6  c #0C1B2B",
"7  c #161924",
"8  c #1A1D23",
"9  c #031C33",
"0  c #001839",
"q  c #1B232B",
"w  c #082031",
"e  c #00203B",
"r  c #152A35",
"t  c #2E2F38",
"y  c #373D3D",
"u  c #062B43",
"i  c #012E58",
"p  c #063159",
"a  c #163759",
"s  c #193559",
"d  c #22475F",
"f  c #1B426C",
"g  c #274B62",
"h  c #224F6D",
"j  c #2B4A6B",
"k  c #23506E",
"l  c #274F73",
"z  c #255373",
"x  c #23507F",
"c  c #315E7C",
"v  c #474B51",
"b  c #54595C",
"n  c #5B5E63",
"m  c #5F6364",
"M  c #666966",
"N  c #61656A",
"B  c #616A6C",
"V  c #6E7177",
"C  c #73797E",
"Z  c #315C88",
"A  c #316181",
"S  c #2F6496",
"D  c #2D659D",
"F  c #396392",
"G  c #346D95",
"H  c #376BA2",
"J  c #447EA5",
"K  c #7A8485",
"L  c #7F8897",
"P  c #82858B",
"I  c #868C8F",
"U  c #8C9095",
"Y  c #8E9298",
"T  c #8E999A",
"R  c #919596",
"E  c #93979A",
"W  c #8D95A9",
"Q  c #9FA8B3",
"!  c #A3A7AD",
"~  c #A4AAAD",
"^  c #ABAEB4",
"/  c #A6B1B0",
"(  c #ABB1B3",
")  c #AEB9BC",
"_  c #B3B7BD",
"`  c #B4BBBE",
"'  c #B5BBC0",
"]  c #BBBEC3",
"[  c #B7C3C1",
"{  c #BDC2C5",
"}  c #BDC2C9",
"|  c #C2C3C4",
" . c #C3C8C6",
".. c #C2C5CA",
"X. c #C4C9CD",
"o. c #CACBCE",
"O. c #C6CBD1",
"+. c #CBCED1",
"@. c #CDD2D5",
"#. c #CDD4D8",
"$. c #D2D3D5",
"%. c #D4D6DA",
"&. c #D5DADD",
"*. c #DADBDD",
"=. c #CBD4E3",
"-. c #D7DEE3",
";. c #DADEE1",
":. c #E0DFE2",
">. c #DEE1E4",
",. c #DFE7ED",
"<. c #E3E4E6",
"1. c #E4E5E9",
"2. c #E8E7EA",
"3. c #E5E9EC",
"4. c #E9EBED",
"5. c #ECEEF1",
"6. c #E7EFFC",
"7. c #EDF1F4",
"8. c #EDF5FD",
"9. c #F2F3F4",
"0. c #F5F8F7",
"q. c #F5F6FD",
"w. c #F3F6F9",
"e. c #F8F7FC",
"r. c #F2F8FD",
"t. c #F3F9FE",
"y. c #F5FEFF",
"u. c #F6F9FB",
"i. c #F8F8F8",
"p. c #F8F8FA",
"a. c #F9F9FB",
"s. c #F9FBFA",
"d. c #F9F8FD",
"f. c #FAFBFD",
/* pixels */
"                                                                                ",
"                                                                                ",
"                          +.O.+.%.;.3.5.9.                                      ",
"                      5.-.] _ { { O.=.,.e.d.a.                                  ",
"                    5.#...^ ] X.] $.;.-.1.8.9.4.                                ",
"                  8.4.@._ Y V n n N P ! %.1.9.9.i.                              ",
"                  4.#.E v 7 . % O O * 8 n ^ 5.9.i.                              ",
"                8.1.U 8 & < 1 & . O $ O O q J 2.i.9.                            ",
"                8.=.t 1 a f a 9 $ O w 9 5 5 ; R 9.9.                            ",
"                6.W 7 6 Z H F j < 3 g z A d 2 y >.9.                            ",
"                t.I & 4 x D S z 6 r c G J h 3 *  .0.                            ",
"                6.! - & 0 p p e 2 3 g z k u = * ` s.                            ",
"                6.-.K > = # < $ @ @ $ $ * . @ m 5.0.                            ",
"                  3.%./ b y , X X X o o o : M  .7.5.                            ",
"                      #.[ / T K B B B B I ( #.;.                                ",
"                          [ ` ' ) ) ) ) [ [                                     ",
"                                {  .X.+.$.  :.2.9.9.i.                          ",
"                8.>.X...{ { { { o.o.$.&.:.:.5.5.i.i.i.i.                        ",
"                u.-.{ ` { { { { o.$.;.1.2.9.9.9.i.d.d.d.                        ",
"                t.&.] ( { } { { o.*.1.7.9.5.9.9.e.d.a.i.2.4.                    ",
"              3.X.' / ~ ] ..} | { $.;.1.4.5.5.5.9.e.i.9.o.*.2.                  ",
"            y.-.[ ' ( ! ' } ..} ..%.>.1.1.4.5.5.9.e.a.9.+...o.2.                ",
"            7.O.' ..{ / ( ] } O.{ @.*.>.:.1.2.5.9.d.f.9.o.| | +.<.              ",
"          r.>.X.]   O.^ ^ ' X.O.[ ..+.@.;.:.1.4.9.d.f.i.$.o.| | $.2.            ",
"          7.#.` }   #._ ' ] } } ....+.%.%.;.3.5.9.d.f.f.  :.$.o.| $.2.          ",
"        y.>.X.[     &.{ ' } =.} X...X.+.%.;.3.5.9.e.f.f.      $.o.o.*.          ",
"        7.#.[ |       O.' } } O.O.} } +.$.-.1.8.9.i.f.          $.o.o.*.        ",
"        3.@.}         #.' ] } O.O.O...O.$.;.1.5.9.e.f.            $.$.$.2.      ",
"      w.>.X.{         $...' ..X.O.X...O.$.;.<.5.9.s.f.              %.$.$.      ",
"      w.>.[ {           O...] X.O.X.X.O.+.;.:.5.w.f.f.                $.%.$.    ",
"      w.@.{             ;.O...+.O.X...O.+.*.<.4.9.a.f.                  %.%.    ",
"      w.+.{               %.O.O.O.X.X.O.+.-.>.4.w.s.f.                          ",
"      3.$.|               1.%.| o.+.o.o.+.%.<.1.e.s.                            ",
"      >.o.|                 >...o.+.+.+.$.%.:.5.i.i.                            ",
"      &.|                     ;.+.o.+.o.+.%.:.2.9.9.                            ",
"      +.{                       *.+.o.o.+.%.:.4.9.                              ",
"                                *.*.+.o.$.$.*.<.                                ",
"                                    $.o.+.+.$.                                  ",
"                                                                                ",
"                                                                                "
};
