/* XPM */
static char *_674550837727[] = {
/* columns rows colors chars-per-pixel */
"40 40 61 1 ",
"  c #453D35",
". c #483F37",
"X c #474035",
"o c #484037",
"O c #4C443C",
"+ c #51473E",
"@ c #51493F",
"# c #4F4940",
"$ c #544C43",
"% c #584F47",
"& c #584F48",
"* c #575047",
"= c #5A5046",
"- c #5C534B",
"; c #5F5651",
": c #61574E",
"> c #62584F",
", c #645B53",
"< c #685F56",
"1 c #696057",
"2 c #676059",
"3 c #6C635B",
"4 c #6E685F",
"5 c #70675E",
"6 c #71695F",
"7 c #6F6660",
"8 c #706760",
"9 c #746B63",
"0 c #786F66",
"q c #786F68",
"w c #777067",
"e c #797066",
"r c #7C736B",
"t c #7E7770",
"y c #7F7972",
"u c #81776E",
"i c #82796F",
"p c #817770",
"a c #857C73",
"s c #887E76",
"d c #887F78",
"f c #898177",
"g c #878078",
"h c #8D837B",
"j c #90867E",
"k c #92897F",
"l c #908780",
"z c #958C82",
"x c #988F85",
"c c #979087",
"v c #9A9186",
"b c #9D938A",
"n c #A1968D",
"m c #A3998E",
"M c #A59B91",
"N c #A99E95",
"B c #ABA196",
"V c #ADA399",
"C c #B1A69C",
"Z c #B2A89E",
"A c #B6ACA2",
/* pixels */
"phw8lhhjfffhhja3nxzxxxzzj9wNzzzlzzzlxzlp",
"lbugbbvvnknkkkf=ukvxvnnmbrzVNmbbbmnmMbbl",
"hg,pzlhfau36u66>-590e00uq-zVNbbbbbnbvvvl",
"3,O-393,,@ aMBCVNVNmnxzj9.9zbdsfddssuuwq",
"tgzvvbxzxj:hBNVBBCNMNNBBh--1<,,,,<,O$9ga",
"lnmbvbbvvve<xmnmnbnnvksu,1jlzxzlxzl-gMbl",
"hbbvbbbvxkz61iapruasu000-,bbvbbbvxh-hbbh",
"lbxxvbvljar1@$zbnNNMnMMml3jzzlxvxxz7hbbj",
"hbvvjfuwerhvheBMNmNmBNmMv--<<$,uhhu-pvvh",
"dhpr90hjzvbbjgMNNNMNMnnnb0gMburar8$Xkmmk",
",9ufkvvvxvbv9sBmnnnmnmbxk6jAZCCVVNb4ihi3",
"azvbvnvvvbbh$,MNvhpr3r03,@9VBMBVVbMr$6re",
"sxzfljfaar0,$$<36is0%zbzch4hbnnvvzh,-rfp",
",33=O3pasdsjxmNnBZCVuanxcl;-ifi12ww39,3,",
"gvxa>mNCZZZCCCCCVVMCh,r66w9wsau3#abbbzvh",
"hvvhuCBCCCNnnnnnmmnMj$,rjvbxbbbv2gbvvcvj",
"fvxu9NZNNNMbbbbbvnbvs:snbzbxbxbx<dnxxxvf",
"fjp<O6bnnlxbbnbxkxj6%%9bbxxxxzld->rhjxzs",
"-<rxf93>:%,8w9<:=-++.:%uu85,::>,:+%>>56<",
":rBBZBmxp08q-#usssskzxzzlssu<<znNNNNnkjh",
",9CMVNMNNMMM06Nvnvnnvbvvnvvns5CVNCNVNVCv",
"96VMMnmmnnbv1>Mbnvvvvvxjvxxxs0ZVCMMNMnMl",
"<<Mnnnnnbbbc6=mnvxxzxvvzvvkv0,MMnbbbbxja",
"o->pszzjq<8q<%uzmnbzuaauuau0-+:-300q0<$O",
"wp3>,>&O0axBBn09hp036r6.>16axmk09OXqww99",
"hbblvzl,zCBBBBVj<gzzvb0uBmMVVVVBv$4bnbbj",
"hvvvbbb8hCnbmMnu9grau3uCZNmNNNNm3-zvvvvf",
"hzzvxvbr3p86066<3eup< dZVnvnnvni$fkzxxxf",
"fvvvxxvr%9uhhhxvbxvvh$9NmMMbkju+#shajkzg",
"1eeursjr9Mbvxxvvbxxzz83hquq<>::$##o$>13,",
"ii+-<03:,e3699rrre968- %,,0sjxbxl9-szzls",
"jv6jvbkhfsu4=9hhsprpq< dMnnnbbbxbs:xbvvh",
"fxauvvvvvnbj>zbbbbbvvj@embbbbnvnke@esfjh",
"13<-46ffhhjf-ibbbvbvvz>2bbvvvnkvf,ri933,",
"avlhf,3rure>Xhvvckvccva$jvvvvkcg>rNNNMz$",
"9hjxz6rzhff3 rhhkjjjkjf@=3iau,>*X-,18ew*",
"803@,238rtr863-@2983,,,o=-o3mmbvzfyggfge",
"jmz4lcvcbbbbbba>mNBblvlhy-@cAVBCZCVBBBBv",
"zNzabbbbbzvbbbx5BBMNVBMNNy3AABMMmBBCmbBz",
"9t22attttrtrtt0,ggadhhdpi3*jgaaggjjhgegw"
};
