/* XPM */
static char *_674547906448[] = {
/* columns rows colors chars-per-pixel */
"40 40 203 2 ",
"   c #0F0800",
".  c #090600",
"X  c #140C01",
"o  c #180F01",
"O  c #171004",
"+  c #1C1406",
"@  c #1F1609",
"#  c #1F190F",
"$  c #1F1910",
"%  c #241B0D",
"&  c #271B07",
"*  c #372807",
"=  c #2C2313",
"-  c #302616",
";  c #352B1B",
":  c #3A2F1C",
">  c #322818",
",  c #3B311E",
"<  c #2E2704",
"1  c #3D3221",
"2  c #39342A",
"3  c #38342B",
"4  c #493108",
"5  c #5D3D06",
"6  c #463210",
"7  c #613F05",
"8  c #413623",
"9  c #453924",
"0  c #4A3C25",
"q  c #463B29",
"w  c #493C29",
"e  c #433F38",
"r  c #59421B",
"t  c #6E4704",
"y  c #64440D",
"u  c #69470F",
"i  c #674307",
"p  c #734B06",
"a  c #734C09",
"s  c #7C530D",
"d  c #724E12",
"f  c #7E5611",
"g  c #79561A",
"h  c #7D591D",
"j  c #765418",
"k  c #6E531E",
"l  c #736A0D",
"z  c #4E4129",
"x  c #53442E",
"c  c #5B4A2D",
"v  c #5A4626",
"b  c #49443A",
"n  c #564932",
"m  c #5B4C33",
"M  c #554833",
"N  c #5F5035",
"B  c #614F2F",
"V  c #625135",
"C  c #64543A",
"Z  c #6F5835",
"A  c #715D3F",
"S  c #7E5D26",
"D  c #554E43",
"F  c #575248",
"G  c #5C5C5C",
"H  c #5D5A54",
"J  c #464441",
"K  c #635B4D",
"L  c #6E5E43",
"P  c #735E41",
"I  c #645D53",
"U  c #615F5D",
"Y  c #6F604A",
"T  c #786447",
"R  c #6A6254",
"E  c #6B655B",
"W  c #68635C",
"Q  c #776954",
"!  c #7C705E",
"~  c #636363",
"^  c #6E6A64",
"/  c #6A6A6A",
"(  c #696763",
")  c #73716E",
"_  c #7A7368",
"`  c #6F6F70",
"'  c #757474",
"]  c #797670",
"[  c #7B7976",
"{  c #7C7C7C",
"}  c #DE0000",
"|  c #DD1A08",
" . c #D03104",
".. c #81570E",
"X. c #83580F",
"o. c #8A5A07",
"O. c #815710",
"+. c #895D13",
"@. c #835C18",
"#. c #8C6116",
"$. c #926416",
"%. c #98691A",
"&. c #92710C",
"*. c #A36A09",
"=. c #B6780F",
"-. c #AE7211",
";. c #835F21",
":. c #81602A",
">. c #9C732C",
",. c #8E6C30",
"<. c #906925",
"1. c #A27424",
"2. c #AC7A25",
"3. c #AA7B2A",
"4. c #B17F28",
"5. c #D77320",
"6. c #E6702C",
"7. c #E36226",
"8. c #886F4B",
"9. c #836B47",
"0. c #8D734D",
"q. c #8B7144",
"w. c #997C49",
"e. c #867458",
"r. c #967B52",
"t. c #997E54",
"y. c #827561",
"u. c #887A68",
"i. c #9C9114",
"p. c #BCB017",
"a. c #BB862C",
"s. c #B58633",
"d. c #BA8934",
"f. c #BE8F3F",
"g. c #B58738",
"h. c #A7803F",
"j. c #C5861A",
"k. c #C9891B",
"l. c #C98928",
"z. c #D7992E",
"x. c #CC9534",
"c. c #CE983A",
"v. c #D99B30",
"b. c #D39C3C",
"n. c #DA9C3A",
"m. c #C38E32",
"M. c #E79239",
"N. c #DBA13C",
"B. c #E0A338",
"V. c #9D8156",
"C. c #9A835F",
"Z. c #B38C48",
"A. c #BF9041",
"S. c #A5875A",
"D. c #AA8C5E",
"F. c #AC8B51",
"G. c #AB8A4F",
"H. c #8E806C",
"J. c #97866A",
"K. c #8B8171",
"L. c #84817B",
"P. c #908A7F",
"I. c #A58C65",
"U. c #AB8F66",
"Y. c #AF9164",
"T. c #B59668",
"R. c #B69666",
"E. c #C19243",
"W. c #D39F44",
"Q. c #DEA542",
"!. c #E5AA42",
"~. c #E9AD43",
"^. c #C09D69",
"/. c #C5A16B",
"(. c #848585",
"). c #8C8C8C",
"_. c #8B8883",
"`. c #928D84",
"'. c #9A948A",
"]. c #969188",
"[. c #939393",
"{. c #9C9C9D",
"}. c #979798",
"|. c #8D8E91",
" X c #A29D94",
".X c #A79B88",
"XX c #AAA191",
"oX c #BCAC90",
"OX c #9F9FA0",
"+X c #A4A4A4",
"@X c #ACACAC",
"#X c #A6A8A9",
"$X c #B4B4B4",
"%X c #BCBCBC",
"&X c #BDB8B1",
"*X c #C6B69A",
"=X c #C2BDB5",
"-X c #C4BFB8",
";X c #C4C3BF",
":X c #C3C3C3",
">X c #CACACA",
",X c #D2D2D2",
"<X c none",
/* pixels */
"<X<X<X<X<X<X<X<X<X<X<X<X<X<X<X<X<X<X/ / / ~ <XG ~ / / / <X<X<X<X<X<X<X<X<X<X<X<X",
"<X<X<X<X<X<X<X<X<X<X<X<XP P E ~ G [ $X%X$X' L R (.@X%X+X~ G / <X<X<X<X<X<X<X<X<X",
"<X<X<X<X<X<X<X<X<XT T P I W [.).G / ).>X>X' C.! ).%X@X` ~ / #X' ~ <X<X<X<X<X<X<X",
"<X<X<X<X<X<X<XA 9.Y.S.Q ).@X}./ (.:X$X(.%X] I.y.).}./ [ %X%X(.@X$X(.<X<X<X<X<X<X",
"<X<X<X<X<XP P 9.Y.R.u.[.#X>X|.G ~ {.:X' %X' I.y.).).G / [.>X' %X,X%X).<X<X<X<X<X",
"<X<X<X<Xr.D.r.8.^.T.^ {.@X:X|.G G / [.' %X' I.y.).).G G / }./ %X,X,X[.H <X<X<X<X",
"<X<X<XA V./.S.8./.T.^ {.@X:X|.G / ' / / %X[ I.y.).).G ~ [ / / %X,X,X|.G <X<X<X<X",
"<X<X<XA V./.S.8.R.T.^ {.@X:X%X(.~ / / {.).J.R.U.u.(.{ ~ / ~ {.>X,X,X[.G <X<X<X<X",
"<X<X<XA V./.S.8.^.R.J.L.OX%X>X%X+X|./ (.( Y./.^.U.L.(.|.).[.>X,X,X+X{ <X<X<X<X<X",
"<X<X<X<X0.t.0.T V.^.^.I.u.{.$X:X$X(.E r.Y r.t.r.Y.U.H.(.|.$X;X>X+X' <X<X<X<X<X<X",
"<X<X<X<X<XA A A T t.t.t.Q ] ).(._ Z w.Q.Z.3.:.Z r.V.e.K R (.).[.' <X<X<X<X<X<X<X",
"<X<X<X<X<X<X<X<X<XA A P A I I I V X.f.W.!.!.$.<X<XA A A P G G G <X<X<X<X<X<X<X<X",
"<X<X<X<X<X<X<X<X<X<XA <X<X<XA <X<Xs 1.d.!.!.#.t <X<X<X<X<X<X<X<X<X<X<X<X<X<X<X<X",
"<X<X<X<X<X<X<X<X<X<X<XT P P <X<X<Xp O.s.b.!.4.s <X<X<X<X<X<X<X<X<X<X<X<X<X<X<X<X",
"<X<X<X<X<X<X<X<X<X<X<X<X<X<X<X<X<X<Xs 1.s.Q.~.%.p <X<X<X<X<X<X<X<X<X<X<X<X<X<X<X",
"<X<X<X<X<X<X<X<X<X<X<X<X<X<X<X<X<X<Xp s s.N.!.4.s p <X<X<X<X<X<X<X<X<X<X<X<X<X<X",
"<X<X<X<X<X<X<X<X<X<X<X<X<X<X<X<X<X<X<Xs 1.3.m.x.%.t <X<X<X<X<X<X<X<X<X<X<X<X<X<X",
"<X<X<X<X<X<X<X<X<X<X<X<X<X<X<X<X<X<Xf f +.$.$...a <X<X<X<X<X<X<X<X<X<X<X<X<X<X<X",
"<X<X<X<X<X<X<X<X<X<X<X<X<X<X<X<X<X..3.3.x.x.x.$.t <X<X<X<X<X<X<X<X<X<X<X<X<X<X<X",
"<X<X<X<X<X<X<X............a a g g j a h @.:.@.h g h d u g g a <X<X<X<X<X<X<X<X<X",
"<X<X<X<X<X<X%.x.b.W.W.W.b.r K {. X_ , '. X X`.P._.`.I 8 '.].g <X<X<X<X<X<X<X<X<X",
"<X<X<X<X<Xs s +.,..XXXXXXXb ) ,X%X[ 2 &X;X=XD ; , ; $ 2 @X&X@.p <X<X<X<X<X<X<X<X",
"<X<X<Xp 1.b.f.>.P.` / ` |.b [ ,X:X[ > 4.d.a.6 l p.l   2 #X-X;.<.Q ~ <X<X<X<X<X<X",
"<X<X<Xp a.c.F. XOX[.[.|.' 3 ' ,X:X[ * -.=.=.* < i.&.  2 #X-X:.J.[.|.{ <X<X<X<X<X",
"<X<X<Xp ..+.q. X}.' ` ' ~ F ~ { ).] 1 oX*X*Xq   < < O 2 +X;XS E ' ` / U ~ U U <X",
"<X<X<X<X* 7 @.2 e U |.+X' { +X(.E Q C u.H.K.C x x n n C e.e.j K (.+X{ ' OX}.U <X",
"<X<X<X<X. < * X # W +X>X{ |.:XOXQ E.E.f.E.f.3.s.A.E.E.E.f.g.f H }.>X[.{ %X$XU <X",
"<X<X<X    % 0 w z R { @X#X).{.$X'.G.~.~.~.~.j.z.~.~.~.~.~.N.f L ] +X@X[.|.$XOX~ ",
"<X<X  = > > 9 m n m U {.>X(.(.:X#XQ ~.~.~.B.j.z.~.~.~.~.~.N.f B H |.:X{.[ $X%X/ ",
"<X<XX ; w - = c N n W {.>X(.(.%X@Xe.~.B.~.~.j.v.~.~.~.~.~.N.f B H |.:X{.[ $X%X~ ",
"<X<XX % = + % 8 N n D { }.' ' |.P.F.~.~.~.~.k.z.~.~.~.~.~.N.f B N ' }.{ / ).[.~ ",
"<XX X   % = % & x m n H b M q.V.Z.~.~.Q.>.b.$.a.s.s.M.7.6.N.f r m F J J G G <X<X",
"<XX X X > w ; % 0 N m N % 4 -.B.~.~.~.b.> d.6 >.k k 6.} | l.s B B B - X <X<X<X<X",
"<X% % + % ; =   % w n x 8 4 o.k.v.v.v.l.i a.a 1.$.#.5. . .-.p v x x 8 = <X<X<X<X",
"o 1 q - O X O % % 0 V m C = 7 *.*.*.*.*.*.*.*.*.*.*.*.*.*.*.p z N N V ,   <X<X<X",
"o 1 q q = X % q 8 & q x x : 4 i p p a p p p i y u u y 5 7 u y & 8 x x 8 = <X<X<X",
"o 1 q q = X % q , % x C V C : X <X<X<X<X<X<Xo ; 0 q ; X @ q 9 @ 0 C V V w X <X<X",
"O 1 q 8 = X % 8 : = w x z x = X <X<X<X<X<X<XX ; q 9 - X + , 1 % 9 x x x , X <X<X",
"O ; 2 % X X X X % m v N c m , <X<X<X<X<X<X<XX - 9 = X X X o + 9 m c n C w X <X<X",
"<X+ + X   X X X X @ @ @ @ @ @ <X<X<X<X<X<X<X<XO o o X X X X X + & + @ @ @ <X<X<X"
};
