/* XPM */
static char *_675159060199[] = {
/* columns rows colors chars-per-pixel */
"40 40 203 2 ",
"   c #0F0800",
".  c #090600",
"X  c #140C01",
"o  c #180F01",
"O  c #171004",
"+  c #1C1406",
"@  c #1F1609",
"#  c #1F190F",
"$  c #1F1910",
"%  c #241B0D",
"&  c #271B07",
"*  c #372807",
"=  c #2C2313",
"-  c #302616",
";  c #352B1B",
":  c #3A2F1C",
">  c #322818",
",  c #3B311E",
"<  c #2E2704",
"1  c #3D3221",
"2  c #39342A",
"3  c #38342B",
"4  c #493108",
"5  c #5D3D06",
"6  c #463210",
"7  c #613F05",
"8  c #413623",
"9  c #453924",
"0  c #4A3C25",
"q  c #463B29",
"w  c #493C29",
"e  c #433F38",
"r  c #59421B",
"t  c #6E4704",
"y  c #64440D",
"u  c #69470F",
"i  c #674307",
"p  c #734B06",
"a  c #734C09",
"s  c #7C530D",
"d  c #724E12",
"f  c #7E5611",
"g  c #79561A",
"h  c #7D591D",
"j  c #765418",
"k  c #6E531E",
"l  c #736A0D",
"z  c #4E4129",
"x  c #53442E",
"c  c #5B4A2D",
"v  c #5A4626",
"b  c #49443A",
"n  c #564932",
"m  c #5B4C33",
"M  c #554833",
"N  c #5F5035",
"B  c #614F2F",
"V  c #625135",
"C  c #64543A",
"Z  c #6F5835",
"A  c #715D3F",
"S  c #7E5D26",
"D  c #554E43",
"F  c #575248",
"G  c #5C5C5C",
"H  c #5D5A54",
"J  c #464441",
"K  c #635B4D",
"L  c #6E5E43",
"P  c #735E41",
"I  c #645D53",
"U  c #615F5D",
"Y  c #6F604A",
"T  c #786447",
"R  c #6A6254",
"E  c #6B655B",
"W  c #68635C",
"Q  c #776954",
"!  c #7C705E",
"~  c #636363",
"^  c #6E6A64",
"/  c #6A6A6A",
"(  c #696763",
")  c #73716E",
"_  c #7A7368",
"`  c #6F6F70",
"'  c #757474",
"]  c #797670",
"[  c #7B7976",
"{  c #7C7C7C",
"}  c #DE0000",
"|  c #DD1A08",
" . c #D03104",
".. c #81570E",
"X. c #83580F",
"o. c #8A5A07",
"O. c #815710",
"+. c #895D13",
"@. c #835C18",
"#. c #8C6116",
"$. c #926416",
"%. c #98691A",
"&. c #92710C",
"*. c #A36A09",
"=. c #B6780F",
"-. c #AE7211",
";. c #835F21",
":. c #81602A",
">. c #9C732C",
",. c #8E6C30",
"<. c #906925",
"1. c #A27424",
"2. c #AC7A25",
"3. c #AA7B2A",
"4. c #B17F28",
"5. c #D77320",
"6. c #E6702C",
"7. c #E36226",
"8. c #886F4B",
"9. c #836B47",
"0. c #8D734D",
"q. c #8B7144",
"w. c #997C49",
"e. c #867458",
"r. c #967B52",
"t. c #997E54",
"y. c #827561",
"u. c #887A68",
"i. c #9C9114",
"p. c #BCB017",
"a. c #BB862C",
"s. c #B58633",
"d. c #BA8934",
"f. c #BE8F3F",
"g. c #B58738",
"h. c #A7803F",
"j. c #C5861A",
"k. c #C9891B",
"l. c #C98928",
"z. c #D7992E",
"x. c #CC9534",
"c. c #CE983A",
"v. c #D99B30",
"b. c #D39C3C",
"n. c #DA9C3A",
"m. c #C38E32",
"M. c #E79239",
"N. c #DBA13C",
"B. c #E0A338",
"V. c #9D8156",
"C. c #9A835F",
"Z. c #B38C48",
"A. c #BF9041",
"S. c #A5875A",
"D. c #AA8C5E",
"F. c #AC8B51",
"G. c #AB8A4F",
"H. c #8E806C",
"J. c #97866A",
"K. c #8B8171",
"L. c #84817B",
"P. c #908A7F",
"I. c #A58C65",
"U. c #AB8F66",
"Y. c #AF9164",
"T. c #B59668",
"R. c #B69666",
"E. c #C19243",
"W. c #D39F44",
"Q. c #DEA542",
"!. c #E5AA42",
"~. c #E9AD43",
"^. c #C09D69",
"/. c #C5A16B",
"(. c #848585",
"). c #8C8C8C",
"_. c #8B8883",
"`. c #928D84",
"'. c #9A948A",
"]. c #969188",
"[. c #939393",
"{. c #9C9C9D",
"}. c #979798",
"|. c #8D8E91",
" X c #A29D94",
".X c #A79B88",
"XX c #AAA191",
"oX c #BCAC90",
"OX c #9F9FA0",
"+X c #A4A4A4",
"@X c #ACACAC",
"#X c #A6A8A9",
"$X c #B4B4B4",
"%X c #BCBCBC",
"&X c #BDB8B1",
"*X c #C6B69A",
"=X c #C2BDB5",
"-X c #C4BFB8",
";X c #C4C3BF",
":X c #C3C3C3",
">X c #CACACA",
",X c #D2D2D2",
"<X c None",
/* pixels */
"<X<X<X<X<X<X<X<X<X<X<X<X/ / / ~ G <X~ / / / <X<X<X<X<X<X<X<X<X<X<X<X<X<X<X<X<X<X",
"<X<X<X<X<X<X<X<X<X~ G ~ +X%X@X(.I Y ) $X%X$X{ G ~ R P P <X<X<X<X<X<X<X<X<X<X<X<X",
"<X<X<X<X<X<X<X~ [ #X` ~ ` @X:X).! C.' >X>X)./ ~ |.[.W I A T T <X<X<X<X<X<X<X<X<X",
"<X<X<X<X<X<X(.$X@X(.%X%X' / }.).y.I.' %X(.$X%X{ / }.@X).Q D.D.9.A <X<X<X<X<X<X<X",
"<X<X<X<X<X).%X,X%X' >X[.~ G ).).y.I.' %X' :X{./ G [.>X+X|.u.T.Y.9.P P <X<X<X<X<X",
"<X<X<X<XG [.,X,X%X` [./ G G ).).y.I.[ %X) [.` G G [.:X@X{.^ R.^.8.r.D.r.<X<X<X<X",
"<X<X<X<XG ).,X,X%X~ / { ~ G ).).y.I.[ %X/ / [ ~ G [.>X@X{.^ R.R.8.S./.V.A <X<X<X",
"<X<X<X<XG [.,X,X>XOX~ / ~ { (.K.U.R.J.).{./ / ~ (.$X:X@X{.^ R.^.8.S./.V.A <X<X<X",
"<X<X<X<X<X{ +X,X,X>X[.).|.(.K.U././.Y.( (./ ).OX%X>X$XOX(.J.^.^.8.S./.V.A <X<X<X",
"<X<X<X<X<X<X[ +X>X:X$X|.(.K.T.Y.r.V.0.Y r.W ).$X:X$XOXu.J.R.^.S.T 0.t.0.<X<X<X<X",
"<X<X<X<X<X<X<X' [._.(.E K 0.V.0.Z ;.h.Z.Q.w.Z _ (.(.] Q t.V.t.T A A A <X<X<X<X<X",
"<X<X<X<X<X<X<X<XG G G L A P P <X<X$.!.~.b.d.+.V I I I P A A A <X<X<X<X<X<X<X<X<X",
"<X<X<X<X<X<X<X<X<X<X<X<X<X<X<X<Xt $.!.!.d.1.s <X<XA <X<X<XP <X<X<X<X<X<X<X<X<X<X",
"<X<X<X<X<X<X<X<X<X<X<X<X<X<X<X<Xf 2.!.b.s.O.p <X<X<XP P P <X<X<X<X<X<X<X<X<X<X<X",
"<X<X<X<X<X<X<X<X<X<X<X<X<X<X<Xt %.!.Q.d.1.s <X<X<X<X<X<X<X<X<X<X<X<X<X<X<X<X<X<X",
"<X<X<X<X<X<X<X<X<X<X<X<X<X<Xp s a.!.b.s...p <X<X<X<X<X<X<X<X<X<X<X<X<X<X<X<X<X<X",
"<X<X<X<X<X<X<X<X<X<X<X<X<X<Xp %.x.m.3.1.s <X<X<X<X<X<X<X<X<X<X<X<X<X<X<X<X<X<X<X",
"<X<X<X<X<X<X<X<X<X<X<X<X<X<X<Xa s +.#.+.O.O.<X<X<X<X<X<X<X<X<X<X<X<X<X<X<X<X<X<X",
"<X<X<X<X<X<X<X<X<X<X<X<X<X<X<Xt $.x.x.x.3.3.O.<X<X<X<X<X<X<X<X<X<X<X<X<X<X<X<X<X",
"<X<X<X<X<X<X<X<X<Xa g g u j h g @.:.;.@.h a j g g d p ..X.....X.X.<X<X<X<X<X<X<X",
"<X<X<X<X<X<X<X<X<Xg '.'.2 R P.P.P.`. X X].1 _  X XI r W.W.W.W.c.x.$.<X<X<X<X<X<X",
"<X<X<X<X<X<X<X<Xa h &X#X3 $ ; , ; D ;X;X&X2 { %X>X) b XXXXXX.X,.+...s <X<X<X<X<X",
"<X<X<X<X<X<XW Q <.:.;XXX3 X l p.l 6 a.a.4.* [ :X,X[ 3 }.` ` ` P.w.a.c.2.p <X<X<X",
"<X<X<X<X<X[ |.[.J.:.=X@X3 . &.i.< * =.=.-.* { %X,X[ 3 ' |.|.[.XXXXG.c.4.p <X<X<X",
"<XG U ~ G / ' ` E S ;X+X2 X * <   w *X*XoX, [ ).{ ( F ~ ' ` ' }. Xq.+...p <X<X<X",
"<X~ }.{.' { +X(.H j e.e.V n x c n C H.K.H.C Q E _.+X{ ' #X|.G e e O.7 * <X<X<X<X",
"<X~ $X%X{ [.>X}.K s g.A.E.E.E.E.s.3.A.A.f.m.f.Q OX:X).{ >X+X~ $ X * & . <X<X<X<X",
"~ {.$X[.[.@X+X' Y f N.~.~.~.~.~.z.j.~.~.~.~.Z.'.$X{.).#X@X{ R w w 0 & X   <X<X<X",
"/ %X$X' {.:X|.H c X.N.~.~.~.~.~.z.j.!.~.~.!.! #X%X(.(.>XXXG m M m 8 > - % X <X<X",
"~ %X$X{ {.:X[.H B f N.~.~.!.~.~.z.j.!.!.~.!.! +X:X(.).:XOX~ M m m % - w ; X <X<X",
"~ [.)./ L.[.) M c X.N.~.~.~.~.~.z.k.~.~.~.~.Z.].|.' ' }.{ F M N 9 % % - % o <X<X",
"<X<XG G J b H m v f n.6.7.M.s.d.a.$.b.>.N.~.~.Z.r.9.M b H M m x % @ = @ X X X <X",
"<X<X<X<XX - m V v s l.| } 6.k k >.6 d.* b.~.~.~.B.2.4 & N m V 0 % ; w > X X X <X",
"<X<X<X<X= 8 x n v s -. . .5.+.+.1.d a.i l.v.v.v.k.o.4 8 x n z @ X % ; % + % % <X",
"<X<X<XX 8 V N V r a *.*.*.*.*.*.*.*.*.*.*.*.*.*.*.5 = C m V 0 = % O X + = w 2 O ",
"<X<X<X= 1 x x , & y y 5 5 y u u y 7 p p a a a a i 4 : x n 0 + 1 q % X = 9 w 1 O ",
"<X<XX 0 V V C 0 @ 9 8 % o ; w w ; o <X<X<X<X<X<Xo : C m C x @ 1 q % X = q q 1 o ",
"<X<XX , x x x 9 = , , + X - 9 w ; X <X<X<X<X<X<XX - x z n w = , 1 % X % 8 q 1 O ",
"<X<XX q C m m V 9 O o X X X = 8 - X <X<X<X<X<X<X<X, m c V c c % o X X X % 2 : O ",
"<X<X<X@ @ @ + + + X X X X X o O + <X<X<X<X<X<X<X<X+ & + + + @ X X X X X o O + <X"
};
